<?xml version="1.0" encoding="UTF-8" standalone="no"?>
<!-- Created with Inkscape (http://www.inkscape.org/) -->
<svg xmlns:rdf="http://www.w3.org/1999/02/22-rdf-syntax-ns#" xmlns="http://www.w3.org/2000/svg" version="1.1" xmlns:cc="http://creativecommons.org/ns#" xmlns:dc="http://purl.org/dc/elements/1.1/" viewBox="0 0 233.9 101.4">
 <metadata>
  <rdf:RDF>
   <cc:Work rdf:about="">
    <dc:format>image/svg+xml</dc:format>
    <dc:type rdf:resource="http://purl.org/dc/dcmitype/StillImage"/>
    <dc:title/>
   </cc:Work>
  </rdf:RDF>
 </metadata>
 <g transform="translate(-148.79884,-505.38042)">
  <g fill-rule="evenodd" transform="matrix(0.97010973,0,0,0.97010973,7.9426941,16.621184)">
   <path d="m197.5,580.7c-11.39,0-16.99-6.938-19.18-14.19,2.466,11.77,15.79,23.29,57.84,28.42,39.72,4.855,65.61-7.316,74.34-12.98,0,0,5.9-2.596,2.36,1.416,0,0-25.02,23.13-74.1,23.36-49.09,0.2364-88.03-24.54-87.79-49.56-0.2358-25.02,38.7-49.8,87.79-49.56,49.09,0.2362,74.1,23.36,74.1,23.36,3.54,4.012-2.36,1.416-2.36,1.416-8.731-5.665-34.51-16.82-74.34-12.98-39.18,3.776-51.96,17.09-56.21,26.05-1.635,3.451-2.374,6.706-2.559,9.984,1.058-8.556,6.376-18.65,20.11-18.65,15.56,0,20.32,12.95,20.32,21.94,0,8.999-4.761,21.95-20.32,21.95zm158.2-8.65,20.73,0,0,7.547-29.44,0,0-41.68,8.709,0,0,34.14zm-31.98-14.92,17.42,0,0,22.47-5.805,0-0.8712-5.226c-2.206,2.555-5.399,6.329-13,6.329-10.04,0-19.16-7.199-19.16-21.83,0-11.38,6.328-22.12,20.38-22.06,12.77,0,17.82,8.301,18.29,14.05h-8.709c0-1.625-2.961-6.85-9.115-6.85-6.211,0-11.96,4.296-11.96,14.98,0,11.38,6.211,14.34,12.13,14.34,1.915,0,8.301-0.7554,10.1-9.173h-9.695v-7.025zm-126.2-15.3c-9.057,0-14.51,7.141-14.51,16.95,0,9.812,5.457,16.95,14.51,16.95,9.057,0,14.51-7.141,14.51-16.95,0-9.811-5.457-16.95-14.51-16.95zm23.44,11.14,4.23,0,0,3.772,0.1016,0c1.071-1.529,3.109-4.537,7.952-4.537,7.084,0,12.13,6.005,12.13,13.5,0,6.371-3.673,14.69-12.75,14.69-3.568,0-5.913-1.682-7.084-3.568h-0.1021v13.35h-4.485v-37.21zm11.33,23.55c4.893,0,8.209-4.24,8.209-10.1,0-3.415-1.379-10.18-8.312-10.18-6.473,0-7.186,6.982-7.186,11.31,0,7.085,4.434,8.971,7.288,8.971zm40.23-5.25c-0.1538,1.274-1.378,5.046-4.741,7.288-1.224,0.8155-2.956,1.835-7.238,1.835-7.492,0-11.93-5.657-11.93-13.35,0-8.258,3.976-14.83,12.79-14.83,7.696,0,11.47,6.117,11.47,15.55h-19.47c0,5.555,2.599,8.767,7.747,8.767,4.23,0,6.728-3.262,6.88-5.25h4.486zm-4.754-7.085c-0.255-4.128-1.988-7.951-7.442-7.951-4.128,0-7.39,3.823-7.39,7.951h14.83zm29.9,15.44-4.485,0,0-16.41c0-4.638-1.325-6.982-5.709-6.982-2.549,0-7.034,1.631-7.034,8.868v14.53h-4.486v-26.66h4.231v3.772h0.1012c0.9688-1.427,3.466-4.537,8.054-4.537,4.129,0,9.328,1.683,9.328,9.277v18.15" fill="#e9e9e9"/>
   <path d="m379,573.7,0,0.376-1.182,0,0,3.265-0.4675,0,0-3.265-1.192,0,0-0.376,2.842,0zm1.11,0,0.9075,2.907,0.0188,0,0.9438-2.907,0.6975,0,0,3.641-0.4125,0,0-3.265-0.0188,0-1.072,3.265-0.3112,0-1.01-3.265-0.0175,0,0,3.265-0.4125,0,0-3.641,0.6875,0" fill="#4386b5"/>
   <path d="m197.4,580.6c-11.39,0-16.99-6.939-19.18-14.19,2.466,11.77,15.79,23.29,57.84,28.42,39.72,4.854,65.61-7.316,74.34-12.98,0,0,5.9-2.596,2.36,1.416,0,0-25.02,23.13-74.1,23.36-49.09,0.2362-88.03-24.54-87.79-49.56-0.2358-25.02,38.7-49.8,87.79-49.56,49.09,0.2362,74.1,23.36,74.1,23.36,3.54,4.011-2.36,1.415-2.36,1.415-8.732-5.664-34.51-16.82-74.34-12.98-39.18,3.775-51.96,17.09-56.21,26.05-1.635,3.451-2.374,6.705-2.559,9.983,1.058-8.556,6.377-18.65,20.11-18.65,15.56,0,20.32,12.95,20.32,21.95,0,8.999-4.761,21.95-20.32,21.95zm158.2-8.65c6.909-0.0005,13.82-0.0005,20.73,0v7.547h-29.44v-41.68h8.709v34.14zm-31.98-14.92c5.805-0.00051,11.61-0.00051,17.42,0v22.47h-5.805c-0.2912-1.742-0.5812-3.484-0.8712-5.225-2.206,2.554-5.4,6.328-13,6.328-10.04,0-19.16-7.199-19.16-21.83,0-11.38,6.329-22.12,20.38-22.06,12.77,0,17.82,8.302,18.29,14.05h-8.709c0-1.626-2.961-6.851-9.115-6.851-6.212,0-11.96,4.298-11.96,14.98,0,11.38,6.211,14.34,12.13,14.34,1.915,0,8.301-0.7549,10.1-9.173-3.232-0.0005-6.464-0.0005-9.695,0v-7.025zm-126.2-15.4c-9.057,0-14.51,7.14-14.51,16.95,0,9.811,5.458,16.95,14.51,16.95,9.057,0,14.51-7.141,14.51-16.95,0-9.812-5.458-16.95-14.51-16.95zm23.5,11.2h4.23c0.0005,1.257,0.0005,2.514,0,3.772,0.0343-0.0005,0.0679-0.0005,0.1016,0,1.071-1.529,3.109-4.536,7.951-4.536,7.084,0,12.13,6.005,12.13,13.5,0,6.371-3.673,14.69-12.75,14.69-3.568,0-5.913-1.682-7.085-3.567-0.0338-0.0005-0.0679-0.0005-0.1021,0,0.0005,4.451,0.0005,8.902,0,13.35-1.495-0.0005-2.99-0.0005-4.485,0v-37.21zm11.33,23.55c4.893,0,8.21-4.24,8.21-10.1,0-3.415-1.379-10.18-8.312-10.18-6.473,0-7.186,6.983-7.186,11.32,0,7.084,4.434,8.97,7.288,8.97zm40.23-5.25c-0.1525,1.274-1.376,5.046-4.74,7.289-1.223,0.8154-2.956,1.834-7.237,1.834-7.493,0-11.93-5.657-11.93-13.35,0-8.257,3.976-14.83,12.79-14.83,7.695,0,11.47,6.116,11.47,15.55-6.49-0.0005-12.98-0.0005-19.47,0,0,5.556,2.6,8.767,7.748,8.767,4.23,0,6.727-3.262,6.88-5.25h4.485zm-4.753-7.084c-0.2544-4.128-1.987-7.951-7.441-7.951-4.128,0-7.391,3.823-7.391,7.951,4.944-0.0005,9.889-0.0005,14.83,0zm29.9,15.44h-4.485v-16.41c0-4.639-1.325-6.983-5.709-6.983-2.549,0-7.034,1.631-7.034,8.869v14.53h-4.485v-26.66h4.23v3.772c0.0337-0.0005,0.0675-0.0005,0.1012,0,0.9688-1.427,3.466-4.536,8.054-4.536,4.129,0,9.328,1.682,9.328,9.276v18.14" fill="#e2e2e2"/>
   <path d="m197.3,580.5c-11.39,0-16.99-6.938-19.18-14.19,2.467,11.77,15.79,23.29,57.84,28.42,39.72,4.855,65.61-7.316,74.34-12.98,0,0,5.9-2.596,2.36,1.416,0,0-25.02,23.13-74.1,23.36-49.09,0.2364-88.03-24.54-87.79-49.56-0.2358-25.02,38.7-49.79,87.79-49.56,49.09,0.235,74.1,23.36,74.1,23.36,3.54,4.011-2.36,1.415-2.36,1.415-8.731-5.664-34.51-16.82-74.34-12.98-39.18,3.776-51.96,17.09-56.21,26.06-1.635,3.451-2.374,6.705-2.558,9.983,1.058-8.556,6.376-18.65,20.11-18.65,15.56,0,20.32,12.95,20.32,21.95,0,8.998-4.761,21.95-20.32,21.95zm158.2-8.65c6.909-0.0005,13.82-0.0005,20.73,0v7.547c-9.812-0.0005-19.62-0.0005-29.44,0v-41.68h8.709v34.14zm-32-14.9h17.42v22.47c-1.935-0.0005-3.87-0.0005-5.805,0-0.29-1.742-0.5812-3.484-0.8712-5.226-2.206,2.555-5.4,6.329-13,6.329-10.04,0-19.16-7.199-19.16-21.83,0-11.38,6.328-22.12,20.38-22.06,12.77,0,17.82,8.302,18.29,14.05h-8.709c0-1.625-2.961-6.85-9.115-6.85-6.211,0-11.96,4.296-11.96,14.98,0,11.38,6.211,14.34,12.13,14.34,1.916,0,8.302-0.7549,10.1-9.173-3.232-0.0005-6.464-0.0005-9.695,0v-7.025zm-126.2-15.3c-9.057,0-14.51,7.141-14.51,16.95,0,9.812,5.458,16.95,14.51,16.95,9.057,0,14.51-7.141,14.51-16.95,0-9.81-5.457-16.95-14.51-16.95zm23.5,11.2h4.23v3.771c0.0342-0.0005,0.0679-0.0005,0.1016,0,1.071-1.529,3.109-4.536,7.952-4.536,7.084,0,12.13,6.004,12.13,13.5,0,6.37-3.673,14.69-12.75,14.69-3.567,0-5.912-1.682-7.084-3.568-0.0336-0.00038-0.0674-0.00038-0.102,0,0.0005,4.451,0.0005,8.903,0,13.35-1.495-0.00051-2.99-0.00051-4.485,0,0.0005-12.4,0.0005-24.81,0-37.21zm11.33,23.55c4.893,0,8.209-4.24,8.209-10.1,0-3.416-1.379-10.18-8.312-10.18-6.473,0-7.187,6.982-7.187,11.32,0,7.085,4.435,8.971,7.289,8.971zm40.23-5.25c-0.1538,1.274-1.378,5.046-4.741,7.289-1.224,0.8154-2.956,1.835-7.237,1.835-7.493,0-11.93-5.658-11.93-13.35,0-8.257,3.976-14.83,12.79-14.83,7.696,0,11.47,6.116,11.47,15.55-6.49-0.0005-12.98-0.0005-19.47,0,0,5.555,2.6,8.767,7.748,8.767,4.23,0,6.727-3.262,6.88-5.25h4.486zm-4.754-7.084c-0.2549-4.128-1.987-7.951-7.44-7.951-4.129,0-7.391,3.823-7.391,7.951,4.944-0.0005,9.888-0.0005,14.83,0zm29.9,15.44c-1.495-0.0005-2.991-0.0005-4.485,0v-16.41c0-4.638-1.325-6.982-5.709-6.982-2.549,0-7.034,1.631-7.034,8.868v14.53c-1.495-0.0005-2.991-0.0005-4.485,0v-26.66h4.23v3.771c0.0337-0.0005,0.0675-0.0005,0.1012,0,0.9688-1.427,3.466-4.536,8.054-4.536,4.129,0,9.328,1.682,9.328,9.276v18.15" fill="#dcdbdb"/>
   <path d="m197.2,580.4c-11.39,0-16.99-6.938-19.18-14.19,2.466,11.77,15.79,23.29,57.84,28.42,39.72,4.854,65.61-7.316,74.34-12.98,0,0,5.9-2.596,2.36,1.416,0,0-25.02,23.13-74.1,23.36-49.09,0.2364-88.03-24.54-87.79-49.56-0.2363-25.02,38.7-49.8,87.79-49.56,49.09,0.2362,74.1,23.36,74.1,23.36,3.54,4.012-2.36,1.416-2.36,1.416-8.732-5.664-34.51-16.82-74.34-12.98-39.18,3.776-51.96,17.09-56.21,26.06-1.635,3.45-2.374,6.705-2.559,9.983,1.059-8.555,6.376-18.65,20.11-18.65,15.56,0,20.32,12.95,20.32,21.95,0,8.999-4.761,21.94-20.32,21.94zm158.2-8.6c6.909-0.0005,13.82-0.0005,20.73,0v7.547h-29.44v-41.68h8.709v34.14zm-31.98-14.92h17.42v22.47h-5.805c-0.2912-1.742-0.5812-3.483-0.8712-5.225-2.206,2.554-5.399,6.328-13,6.328-10.04,0-19.16-7.199-19.16-21.83,0-11.38,6.328-22.12,20.38-22.06,12.77,0,17.82,8.301,18.29,14.05h-8.709c0-1.626-2.961-6.851-9.115-6.851-6.211,0-11.96,4.296-11.96,14.98,0,11.38,6.211,14.34,12.13,14.34,1.915,0,8.301-0.7549,10.1-9.173h-9.695v-7.025zm-126.2-15.4c-9.057,0-14.51,7.141-14.51,16.95,0,9.811,5.458,16.95,14.51,16.95,9.057,0,14.51-7.141,14.51-16.95,0-9.811-5.458-16.95-14.51-16.95zm23.44,11.14h4.231v3.772h0.1015c1.071-1.529,3.109-4.537,7.951-4.537,7.085,0,12.13,6.005,12.13,13.5,0,6.372-3.673,14.69-12.75,14.69-3.567,0-5.912-1.682-7.084-3.567-0.0336-0.0005-0.0679-0.0005-0.1025,0,0.0005,4.451,0.0005,8.902,0,13.35h-4.485c0.0005-12.4,0.0005-24.81,0-37.21zm11.33,23.55c4.893,0,8.21-4.24,8.21-10.1,0-3.415-1.38-10.18-8.312-10.18-6.473,0-7.187,6.983-7.187,11.32,0,7.084,4.435,8.97,7.289,8.97zm40.23-5.25c-0.1538,1.274-1.378,5.046-4.741,7.289-1.224,0.8155-2.956,1.834-7.237,1.834-7.492,0-11.93-5.657-11.93-13.35,0-8.257,3.976-14.83,12.79-14.83,7.696,0,11.47,6.117,11.47,15.55-6.49-0.0005-12.98-0.0005-19.47,0,0,5.556,2.6,8.767,7.747,8.767,4.23,0,6.728-3.262,6.88-5.25,1.495-0.0005,2.99-0.0005,4.486,0zm-4.754-7.084c-0.2549-4.128-1.987-7.951-7.441-7.951-4.128,0-7.391,3.823-7.391,7.951,4.944-0.0005,9.888-0.0005,14.83,0zm29.9,15.44h-4.485v-16.41c0-4.639-1.325-6.983-5.709-6.983-2.549,0-7.034,1.63-7.034,8.869v14.53h-4.486v-26.66h4.231v3.772h0.1012c0.9688-1.427,3.466-4.537,8.054-4.537,4.129,0,9.328,1.683,9.328,9.277v18.14" fill="#d5d4d5"/>
   <path d="m197.1,580.3c-11.39,0-16.99-6.938-19.18-14.19,2.466,11.77,15.79,23.29,57.84,28.42,39.72,4.855,65.61-7.316,74.34-12.98,0,0,5.9-2.596,2.36,1.415,0,0-25.02,23.13-74.1,23.36-49.09,0.2364-88.03-24.54-87.79-49.56-0.2358-25.02,38.7-49.8,87.79-49.56,49.09,0.2362,74.1,23.36,74.1,23.36,3.54,4.012-2.36,1.416-2.36,1.416-8.732-5.664-34.51-16.82-74.34-12.98-39.18,3.776-51.96,17.09-56.21,26.05-1.635,3.451-2.374,6.706-2.559,9.984,1.058-8.556,6.377-18.65,20.11-18.65,15.56,0,20.32,12.95,20.32,21.95,0,8.999-4.761,21.95-20.32,21.95zm158.2-8.65c6.909-0.0005,13.82-0.0005,20.73,0v7.547c-9.811-0.0005-19.62-0.0005-29.44,0v-41.68h8.709v34.14zm-31.98-14.92h17.42v22.47c-1.935-0.0005-3.87-0.0005-5.805,0-0.2912-1.742-0.5812-3.484-0.8712-5.226-2.206,2.555-5.4,6.329-13,6.329-10.04,0-19.16-7.199-19.16-21.83,0-11.38,6.329-22.12,20.38-22.06,12.77,0,17.82,8.302,18.29,14.05h-8.709c0-1.625-2.961-6.85-9.115-6.85-6.212,0-11.96,4.296-11.96,14.98,0,11.38,6.211,14.34,12.13,14.34,1.915,0,8.301-0.7549,10.1-9.173-3.232-0.0005-6.464-0.0005-9.695,0v-7.025zm-126.2-15.3c-9.057,0-14.51,7.141-14.51,16.95,0,9.812,5.457,16.95,14.51,16.95,9.057,0,14.51-7.141,14.51-16.95,0-9.811-5.458-16.95-14.51-16.95zm23.44,11.14h4.231c0.0005,1.257,0.0005,2.514,0,3.771,0.0341-0.0005,0.0679-0.0005,0.1015,0,1.07-1.528,3.109-4.536,7.951-4.536,7.084,0,12.13,6.005,12.13,13.5,0,6.371-3.673,14.69-12.75,14.69-3.568,0-5.913-1.682-7.085-3.568-0.0336-0.0005-0.0679-0.0005-0.102,0,0.0005,4.451,0.0005,8.903,0,13.35-1.495-0.0005-2.99-0.0005-4.485,0,0.0005-12.4,0.0005-24.81,0-37.21zm11.33,23.55c4.894,0,8.21-4.24,8.21-10.1,0-3.415-1.379-10.18-8.312-10.18-6.473,0-7.187,6.982-7.187,11.32,0,7.085,4.435,8.971,7.289,8.971zm40.23-5.25c-0.1525,1.274-1.376,5.046-4.74,7.288-1.223,0.8155-2.956,1.836-7.237,1.836-7.493,0-11.93-5.658-11.93-13.35,0-8.257,3.976-14.83,12.79-14.83,7.696,0,11.47,6.117,11.47,15.55-6.49-0.0005-12.98-0.0005-19.47,0,0,5.555,2.599,8.767,7.748,8.767,4.23,0,6.727-3.262,6.88-5.25h4.485zm-4.753-7.084c-0.2544-4.128-1.987-7.951-7.441-7.951-4.128,0-7.391,3.823-7.391,7.951,4.944-0.0005,9.889-0.0005,14.83,0zm30.1,15.5c-1.495-0.0005-2.99-0.0005-4.485,0v-16.41c0-4.638-1.326-6.982-5.709-6.982-2.549,0-7.034,1.631-7.034,8.868v14.53c-1.495-0.0005-2.991-0.0005-4.485,0v-26.66h4.23v3.771c0.0337-0.0005,0.0675-0.0005,0.1012,0,0.9688-1.426,3.466-4.536,8.054-4.536,4.129,0,9.328,1.683,9.328,9.276v18.15" fill="#cfcece"/>
   <path d="m197,580.2c-11.39,0-16.99-6.938-19.18-14.19,2.467,11.77,15.79,23.29,57.84,28.42,39.72,4.854,65.61-7.316,74.34-12.98,0,0,5.9-2.596,2.36,1.417,0,0-25.02,23.13-74.1,23.36-49.09,0.2362-88.03-24.54-87.79-49.56-0.2358-25.01,38.7-49.79,87.79-49.56,49.09,0.2362,74.1,23.36,74.1,23.36,3.54,4.011-2.36,1.415-2.36,1.415-8.732-5.664-34.51-16.82-74.34-12.98-39.18,3.776-51.96,17.09-56.21,26.06-1.635,3.451-2.374,6.705-2.559,9.983,1.059-8.556,6.376-18.65,20.11-18.65,15.56,0,20.32,12.95,20.32,21.95,0,8.999-4.761,21.94-20.32,21.94zm158.2-8.65c6.909-0.00037,13.82-0.00037,20.73,0v7.547h-29.44v-41.68h8.709v34.14zm-31.98-14.92h17.42v22.47h-5.805c-0.29-1.742-0.5812-3.483-0.8712-5.224-2.206,2.554-5.4,6.328-13,6.328-10.04,0-19.16-7.199-19.16-21.83,0-11.38,6.329-22.12,20.38-22.06,12.77,0,17.82,8.302,18.29,14.05h-8.709c0-1.626-2.961-6.85-9.115-6.85-6.211,0-11.96,4.296-11.96,14.98,0,11.38,6.212,14.34,12.13,14.34,1.916,0,8.302-0.7549,10.1-9.173-3.231-0.0005-6.462-0.0005-9.694,0v-7.025zm-126.2-15.33c-9.057,0-14.51,7.141-14.51,16.95,0,9.812,5.458,16.95,14.51,16.95,9.057,0,14.51-7.141,14.51-16.95,0-9.81-5.457-16.95-14.51-16.95zm23.44,11.14h4.23c0.0005,1.257,0.0005,2.514,0,3.772h0.102c1.071-1.529,3.109-4.536,7.951-4.536,7.084,0,12.13,6.004,12.13,13.5,0,6.372-3.673,14.69-12.75,14.69-3.568,0-5.912-1.682-7.084-3.567-0.0337-0.0005-0.0675-0.0005-0.1021,0,0.00051,4.451,0.00051,8.902,0,13.35h-4.485v-37.21zm11.33,23.55c4.893,0,8.21-4.24,8.21-10.1,0-3.415-1.379-10.18-8.312-10.18-6.473,0-7.187,6.983-7.187,11.32,0,7.084,4.434,8.97,7.289,8.97zm40.23-5.25c-0.1525,1.274-1.376,5.046-4.74,7.289-1.223,0.8154-2.956,1.834-7.237,1.834-7.493,0-11.93-5.657-11.93-13.35,0-8.257,3.976-14.83,12.79-14.83,7.696,0,11.47,6.116,11.47,15.55-6.49-0.00051-12.98-0.00051-19.47,0,0,5.556,2.6,8.766,7.748,8.766,4.229,0,6.727-3.262,6.88-5.25,1.495-0.0005,2.99-0.0005,4.485,0zm-4.753-7.084c-0.2549-4.128-1.987-7.951-7.44-7.951-4.129,0-7.391,3.823-7.391,7.951,4.944-0.0005,9.888-0.0005,14.83,0zm30.1,15.4h-4.485v-16.41c0-4.639-1.325-6.983-5.709-6.983-2.549,0-7.034,1.631-7.034,8.869v14.53h-4.485v-26.66h4.23v3.772h0.1012c0.9688-1.427,3.466-4.536,8.054-4.536,4.129,0,9.328,1.682,9.328,9.276v18.14" fill="#c8c7c7"/>
   <path d="m196.9,580.1c-11.39,0-16.99-6.939-19.18-14.19,2.466,11.77,15.79,23.29,57.83,28.42,39.72,4.855,65.61-7.316,74.34-12.98,0,0,5.9-2.596,2.36,1.416,0,0-25.02,23.13-74.1,23.36-49.09,0.2364-88.03-24.54-87.79-49.56-0.2363-25.02,38.7-49.8,87.79-49.56,49.09,0.235,74.1,23.36,74.1,23.36,3.54,4.011-2.36,1.416-2.36,1.416-8.732-5.665-34.51-16.82-74.34-12.98-39.18,3.775-51.96,17.08-56.21,26.05-1.635,3.451-2.374,6.705-2.559,9.983,1.059-8.556,6.376-18.65,20.11-18.65,15.56,0,20.32,12.95,20.32,21.95,0,8.998-4.761,21.94-20.32,21.94zm158.2-8.65c6.909-0.0005,13.82-0.0005,20.73,0v7.547c-9.812-0.0005-19.62-0.0005-29.44,0v-41.68h8.709v34.14zm-31.98-14.92c5.805-0.00051,11.61-0.00051,17.42,0v22.47c-1.935-0.0005-3.87-0.0005-5.805,0-0.2912-1.743-0.5812-3.484-0.8712-5.226-2.206,2.555-5.399,6.328-13,6.328-10.04,0-19.16-7.199-19.16-21.83,0-11.38,6.328-22.12,20.38-22.06,12.77,0,17.82,8.302,18.29,14.05h-8.709c0-1.626-2.961-6.85-9.115-6.85-6.211,0-11.96,4.295-11.96,14.98,0,11.38,6.211,14.34,12.13,14.34,1.916,0,8.302-0.7554,10.1-9.173-3.232-0.0005-6.464-0.0005-9.695,0v-7.025zm-126.2-15.33c-9.057,0-14.51,7.14-14.51,16.95,0,9.812,5.458,16.95,14.51,16.95,9.057,0,14.51-7.141,14.51-16.95,0-9.812-5.457-16.95-14.51-16.95zm23.44,11.14h4.231v3.772c0.0342-0.0005,0.0679-0.0005,0.1016,0,1.071-1.529,3.109-4.536,7.951-4.536,7.085,0,12.13,6.005,12.13,13.5,0,6.371-3.673,14.69-12.75,14.69-3.567,0-5.912-1.682-7.084-3.568-0.0337-0.0005-0.0674-0.0005-0.1021,0v13.35c-1.495-0.0005-2.99-0.0005-4.485,0,0.0005-12.4,0.0005-24.81,0-37.21zm11.33,23.55c4.893,0,8.21-4.24,8.21-10.1,0-3.415-1.38-10.18-8.312-10.18-6.473,0-7.187,6.983-7.187,11.32,0,7.085,4.434,8.971,7.289,8.971zm40.23-5.25c-0.1538,1.274-1.378,5.046-4.741,7.289-1.224,0.8154-2.956,1.835-7.237,1.835-7.492,0-11.93-5.658-11.93-13.35,0-8.257,3.976-14.83,12.79-14.83,7.696,0,11.47,6.116,11.47,15.55h-19.47c0,5.556,2.6,8.767,7.747,8.767,4.23,0,6.728-3.262,6.88-5.25h4.486zm-4.754-7.085c-0.2549-4.128-1.987-7.951-7.441-7.951-4.128,0-7.391,3.823-7.391,7.951h14.83zm29.9,15.44c-1.495-0.0005-2.99-0.0005-4.485,0v-16.41c0-4.639-1.325-6.983-5.709-6.983-2.549,0-7.034,1.631-7.034,8.869v14.53c-1.495-0.0005-2.991-0.0005-4.486,0v-26.66h4.231v3.772c0.0338-0.00051,0.0675-0.00051,0.1012,0,0.9688-1.427,3.466-4.536,8.054-4.536,4.129,0,9.328,1.682,9.328,9.276v18.15" fill="#c4c3c3"/>
   <path d="m196.8,580c-11.39,0-16.99-6.938-19.18-14.19,2.466,11.77,15.79,23.29,57.84,28.42,39.72,4.854,65.61-7.316,74.34-12.98,0,0,5.9-2.596,2.36,1.416,0,0-25.02,23.13-74.1,23.36-49.09,0.2364-88.03-24.54-87.79-49.56-0.2363-25.02,38.7-49.8,87.79-49.56,49.09,0.2362,74.1,23.36,74.1,23.36,3.54,4.012-2.36,1.416-2.36,1.416-8.731-5.664-34.51-16.82-74.34-12.98-39.18,3.776-51.96,17.09-56.21,26.06-1.635,3.451-2.374,6.705-2.559,9.983,1.058-8.557,6.376-18.65,20.11-18.65,15.56,0,20.32,12.95,20.32,21.95,0,8.999-4.761,21.94-20.32,21.94zm158.2-8.65h20.73v7.547c-9.811-0.0005-19.62-0.0005-29.44,0v-41.68h8.709v34.14zm-32-15c5.805-0.0005,11.61-0.0005,17.42,0v22.47c-1.935-0.0005-3.87-0.0005-5.805,0-0.2912-1.742-0.5812-3.484-0.8712-5.225-2.206,2.555-5.4,6.328-13,6.328-10.04,0-19.16-7.199-19.16-21.83,0-11.38,6.329-22.12,20.38-22.06,12.77,0,17.82,8.301,18.29,14.05h-8.709c0-1.626-2.961-6.851-9.115-6.851-6.212,0-11.96,4.296-11.96,14.98,0,11.38,6.211,14.34,12.13,14.34,1.915,0,8.301-0.7549,10.1-9.173h-9.695v-7.025zm-126.2-15.33c-9.057,0-14.51,7.141-14.51,16.95,0,9.811,5.457,16.95,14.51,16.95,9.057,0,14.51-7.141,14.51-16.95,0-9.811-5.458-16.95-14.51-16.95zm23.44,11.14h4.231c0.0005,1.258,0.0005,2.515,0,3.772h0.1016c1.07-1.529,3.109-4.537,7.951-4.537,7.084,0,12.13,6.006,12.13,13.5,0,6.372-3.673,14.69-12.75,14.69-3.568,0-5.913-1.682-7.085-3.568h-0.1021c0.0005,4.451,0.0005,8.902,0,13.35-1.495-0.0005-2.99-0.0005-4.485,0,0.0005-12.4,0.0005-24.81,0-37.21zm11.33,23.55c4.894,0,8.21-4.239,8.21-10.1,0-3.415-1.379-10.18-8.312-10.18-6.473,0-7.186,6.983-7.186,11.31,0,7.085,4.434,8.97,7.288,8.97zm40.23-5.25c-0.1525,1.274-1.375,5.046-4.74,7.289-1.223,0.815-2.956,1.834-7.237,1.834-7.493,0-11.93-5.658-11.93-13.35,0-8.257,3.976-14.83,12.79-14.83,7.696,0,11.47,6.117,11.47,15.55-6.49-0.0005-12.98-0.0005-19.47,0,0,5.555,2.599,8.766,7.747,8.766,4.23,0,6.728-3.261,6.88-5.25,1.495-0.0005,2.99-0.0005,4.485,0zm-4.753-7.085c-0.2549-4.129-1.987-7.951-7.441-7.951-4.128,0-7.391,3.822-7.391,7.951,4.944-0.0005,9.888-0.0005,14.83,0zm29.9,15.44c-1.495-0.0005-2.99-0.0005-4.486,0v-16.41c0-4.639-1.325-6.983-5.708-6.983-2.549,0-7.034,1.63-7.034,8.869v14.53c-1.495-0.0005-2.991-0.0005-4.486,0v-26.66h4.231v3.772h0.1012c0.9688-1.427,3.466-4.537,8.054-4.537,4.129,0,9.328,1.683,9.328,9.277v18.14" fill="#bdbcbc"/>
   <path d="m196.7,579.9c-11.39,0-16.99-6.938-19.18-14.19,2.467,11.77,15.79,23.29,57.84,28.42,39.72,4.855,65.61-7.316,74.34-12.98,0,0,5.9-2.596,2.36,1.416,0,0-25.02,23.13-74.1,23.36-49.09,0.2362-88.03-24.54-87.79-49.56-0.2358-25.02,38.7-49.8,87.79-49.56,49.09,0.2362,74.1,23.36,74.1,23.36,3.54,4.012-2.36,1.416-2.36,1.416-8.731-5.664-34.51-16.82-74.34-12.98-39.18,3.776-51.96,17.09-56.21,26.05-1.635,3.451-2.374,6.706-2.558,9.984,1.058-8.556,6.376-18.64,20.11-18.64,15.56,0,20.32,12.95,20.32,21.94,0,8.998-4.761,21.95-20.32,21.95zm158.2-8.65c6.909-0.00037,13.82-0.00037,20.73,0v7.547c-9.811-0.0005-19.62-0.0005-29.44,0v-41.68h8.709v34.14zm-32-14.9h17.42v22.47c-1.935-0.0005-3.87-0.0005-5.805,0-0.2912-1.743-0.5812-3.484-0.8712-5.226-2.206,2.555-5.4,6.329-13,6.329-10.04,0-19.16-7.199-19.16-21.83,0-11.38,6.329-22.12,20.38-22.06,12.77,0,17.82,8.301,18.29,14.05h-8.709c0-1.625-2.961-6.85-9.115-6.85-6.212,0-11.96,4.296-11.96,14.98,0,11.38,6.212,14.34,12.13,14.34,1.916,0,8.302-0.7554,10.1-9.173-3.232-0.0005-6.464-0.0005-9.695,0v-7.025zm-126.2-15.33c-9.057,0-14.51,7.141-14.51,16.95,0,9.812,5.458,16.95,14.51,16.95,9.057,0,14.51-7.141,14.51-16.95,0-9.811-5.457-16.95-14.51-16.95zm23.44,11.14h4.23c0.00038,1.257,0.00038,2.514,0,3.771h0.102c1.071-1.529,3.109-4.535,7.951-4.535,7.084,0,12.13,6.004,12.13,13.5,0,6.371-3.673,14.69-12.75,14.69-3.568,0-5.912-1.682-7.084-3.568-0.0337-0.0005-0.0679-0.0005-0.102,0,0.00037,4.451,0.00037,8.902,0,13.35-1.495-0.0005-2.99-0.0005-4.485,0v-37.21zm11.33,23.55c4.893,0,8.21-4.24,8.21-10.1,0-3.415-1.379-10.18-8.312-10.18-6.473,0-7.187,6.983-7.187,11.32,0,7.085,4.435,8.971,7.289,8.971zm40.23-5.25c-0.1525,1.274-1.375,5.046-4.74,7.289-1.223,0.8154-2.956,1.835-7.237,1.835-7.493,0-11.93-5.658-11.93-13.35,0-8.257,3.976-14.83,12.79-14.83,7.696,0,11.47,6.115,11.47,15.54h-19.47c0,5.556,2.599,8.767,7.748,8.767,4.229,0,6.727-3.262,6.88-5.25h4.485zm-4.753-7.084c-0.2549-4.128-1.988-7.952-7.441-7.952-4.128,0-7.391,3.823-7.391,7.952,4.944-0.0005,9.888-0.0005,14.83,0zm29.9,15.44c-1.495-0.0005-2.99-0.0005-4.485,0v-16.41c0-4.638-1.325-6.983-5.709-6.983-2.549,0-7.034,1.631-7.034,8.869v14.53c-1.495-0.0005-2.99-0.0005-4.485,0v-26.66h4.23v3.771h0.1012c0.9688-1.427,3.466-4.535,8.054-4.535,4.128,0,9.328,1.681,9.328,9.275v18.15" fill="#b6b5b5"/>
   <path d="m196.6,579.8c-11.39,0-16.99-6.938-19.18-14.19,2.467,11.77,15.79,23.29,57.84,28.42,39.72,4.854,65.61-7.316,74.34-12.98,0,0,5.9-2.596,2.36,1.416,0,0-25.02,23.13-74.1,23.36-49.09,0.2364-88.03-24.54-87.79-49.56-0.2358-25.02,38.7-49.8,87.79-49.56,49.09,0.235,74.1,23.36,74.1,23.36,3.54,4.011-2.36,1.416-2.36,1.416-8.731-5.665-34.51-16.82-74.34-12.98-39.18,3.776-51.96,17.09-56.21,26.05-1.635,3.451-2.374,6.706-2.558,9.984,1.058-8.556,6.376-18.64,20.11-18.64,15.56,0,20.32,12.95,20.32,21.94,0,8.999-4.761,21.95-20.32,21.95zm158.2-8.7h20.73v7.547c-9.811-0.0005-19.62-0.0005-29.44,0v-41.68h8.709v34.14zm-31.98-14.92c5.805-0.00049,11.61-0.00049,17.42,0v22.47c-1.935-0.0005-3.87-0.0005-5.805,0-0.2912-1.742-0.5812-3.484-0.8712-5.225-2.206,2.555-5.4,6.328-13,6.328-10.04,0-19.16-7.199-19.16-21.83,0-11.38,6.329-22.12,20.38-22.06,12.77,0,17.82,8.301,18.29,14.05h-8.709c0-1.625-2.961-6.85-9.115-6.85-6.211,0-11.96,4.296-11.96,14.98,0,11.38,6.211,14.34,12.13,14.34,1.916,0,8.302-0.7549,10.1-9.173h-9.695v-7.024zm-126.2-15.33c-9.057,0-14.51,7.141-14.51,16.95,0,9.812,5.458,16.95,14.51,16.95,9.057,0,14.51-7.141,14.51-16.95,0-9.811-5.457-16.95-14.51-16.95zm23.44,11.14h4.23c0.0005,1.257,0.0005,2.514,0,3.771,0.0346-0.0005,0.0684-0.0005,0.102,0,1.071-1.529,3.109-4.536,7.951-4.536,7.085,0,12.13,6.005,12.13,13.5,0,6.371-3.673,14.69-12.75,14.69-3.567,0-5.912-1.682-7.084-3.568-0.0336-0.0005-0.0674-0.0005-0.102,0v13.35c-1.495-0.00051-2.99-0.00051-4.485,0,0.0005-12.4,0.0005-24.81,0-37.21zm11.33,23.55c4.892,0,8.209-4.239,8.209-10.1,0-3.415-1.38-10.18-8.312-10.18-6.473,0-7.186,6.983-7.186,11.31,0,7.086,4.435,8.971,7.289,8.971zm40.23-5.25c-0.1525,1.274-1.376,5.046-4.74,7.289-1.223,0.8154-2.956,1.835-7.237,1.835-7.493,0-11.93-5.658-11.93-13.35,0-8.257,3.976-14.83,12.79-14.83,7.696,0,11.47,6.116,11.47,15.55h-19.47c0,5.556,2.599,8.767,7.747,8.767,4.23,0,6.728-3.262,6.88-5.25,1.496-0.0005,2.99-0.0005,4.485,0zm-4.753-7.084c-0.2549-4.129-1.987-7.952-7.441-7.952-4.128,0-7.391,3.823-7.391,7.952,4.944-0.0005,9.888-0.0005,14.83,0zm29.9,15.44c-1.495-0.0005-2.99-0.0005-4.485,0v-16.41c0-4.638-1.325-6.983-5.709-6.983-2.549,0-7.034,1.631-7.034,8.869v14.53c-1.495-0.0005-2.99-0.0005-4.486,0v-26.66h4.231v3.771c0.0337-0.0005,0.0675-0.0005,0.1012,0,0.9688-1.427,3.466-4.536,8.054-4.536,4.129,0,9.328,1.682,9.328,9.277v18.14" fill="#b0aeaf"/>
   <path d="m196.5,579.7c-11.39,0-16.99-6.938-19.18-14.19,2.466,11.77,15.79,23.29,57.84,28.42,39.72,4.855,65.61-7.316,74.34-12.98,0,0,5.9-2.596,2.36,1.416,0,0-25.02,23.13-74.1,23.36-49.09,0.2364-88.03-24.54-87.79-49.56-0.2363-25.02,38.7-49.8,87.79-49.56,49.09,0.2362,74.1,23.36,74.1,23.36,3.54,4.012-2.36,1.416-2.36,1.416-8.731-5.664-34.51-16.82-74.34-12.98-39.18,3.775-51.96,17.08-56.21,26.05-1.635,3.451-2.374,6.705-2.559,9.983,1.058-8.556,6.376-18.65,20.11-18.65,15.56,0,20.32,12.95,20.32,21.95,0,8.999-4.761,21.94-20.32,21.94zm158.2-8.65h20.73v7.547h-29.44v-41.68h8.709v34.14zm-31.98-14.92c5.805-0.0005,11.61-0.0005,17.42,0v22.47h-5.806c-0.29-1.742-0.58-3.483-0.87-5.225-2.206,2.554-5.4,6.328-13,6.328-10.04,0-19.16-7.199-19.16-21.83,0-11.38,6.329-22.12,20.38-22.06,12.77,0,17.82,8.302,18.29,14.05h-8.709c0-1.626-2.961-6.851-9.115-6.851-6.212,0-11.96,4.296-11.96,14.98,0,11.38,6.211,14.34,12.13,14.34,1.916,0,8.302-0.7549,10.1-9.173-3.232-0.0005-6.464-0.0005-9.695,0v-7.025zm-126.2-15.33c-9.057,0-14.51,7.14-14.51,16.95,0,9.812,5.457,16.95,14.51,16.95,9.057,0,14.51-7.14,14.51-16.95,0-9.812-5.457-16.95-14.51-16.95zm23.44,11.14h4.231v3.771c0.0341-0.0005,0.0679-0.0005,0.1015,0,1.07-1.529,3.109-4.536,7.951-4.536,7.084,0,12.13,6.005,12.13,13.5,0,6.371-3.674,14.69-12.75,14.69-3.567,0-5.913-1.682-7.084-3.568-0.0336-0.0005-0.0679-0.0005-0.102,0v13.35c-1.495-0.0005-2.99-0.0005-4.485,0,0.0005-12.4,0.0005-24.81,0-37.21zm11.33,23.55c4.894,0,8.21-4.24,8.21-10.1,0-3.415-1.379-10.18-8.311-10.18-6.473,0-7.187,6.983-7.187,11.32,0,7.085,4.435,8.971,7.289,8.971zm40.23-5.25c-0.1525,1.274-1.376,5.046-4.74,7.289-1.223,0.8155-2.956,1.835-7.237,1.835-7.493,0-11.93-5.658-11.93-13.35,0-8.257,3.976-14.83,12.79-14.83,7.696,0,11.47,6.116,11.47,15.55-6.489-0.0005-12.98-0.0005-19.47,0,0,5.556,2.599,8.767,7.747,8.767,4.23,0,6.728-3.262,6.88-5.25h4.485zm-4.754-7.084c-0.2544-4.128-1.987-7.951-7.44-7.951-4.128,0-7.391,3.823-7.391,7.951h14.83zm30,15.4h-4.486v-16.41c0-4.639-1.325-6.983-5.708-6.983-2.549,0-7.034,1.631-7.034,8.869v14.53h-4.486v-26.66h4.231v3.771c0.0337-0.0005,0.0675-0.0005,0.1012,0,0.9688-1.427,3.468-4.536,8.054-4.536,4.129,0,9.328,1.682,9.328,9.276v18.14" fill="#a9a8a8"/>
   <path d="m196.4,579.5c-11.39,0-16.99-6.939-19.18-14.19,2.466,11.77,15.79,23.29,57.84,28.42,39.72,4.854,65.61-7.316,74.34-12.98,0,0,5.899-2.596,2.359,1.416,0,0-25.02,23.13-74.1,23.36-49.09,0.2362-88.03-24.54-87.79-49.56-0.2358-25.02,38.7-49.8,87.79-49.56,49.09,0.2362,74.1,23.36,74.1,23.36,3.54,4.012-2.359,1.416-2.359,1.416-8.732-5.664-34.51-16.82-74.34-12.98-39.18,3.776-51.96,17.09-56.21,26.06-1.635,3.451-2.374,6.705-2.559,9.983,1.059-8.557,6.377-18.65,20.11-18.65,15.56,0,20.32,12.95,20.32,21.94,0,8.999-4.761,21.95-20.32,21.95zm158.2-8.65h20.73v7.547c-9.811-0.0005-19.62-0.0005-29.44,0v-41.68h8.709v34.14zm-31.98-14.92h17.42v22.47c-1.935-0.0005-3.87-0.0005-5.805,0-0.29-1.742-0.5812-3.484-0.8712-5.225-2.206,2.555-5.399,6.328-13,6.328-10.04,0-19.16-7.199-19.16-21.83,0-11.38,6.328-22.12,20.38-22.06,12.77,0,17.82,8.301,18.29,14.05h-8.709c0-1.626-2.961-6.851-9.115-6.851-6.211,0-11.96,4.296-11.96,14.98,0,11.38,6.211,14.34,12.13,14.34,1.916,0,8.302-0.7549,10.1-9.173h-9.695v-7.024zm-126.2-15.33c-9.057,0-14.51,7.141-14.51,16.95,0,9.812,5.458,16.95,14.51,16.95,9.057,0,14.51-7.141,14.51-16.95,0-9.811-5.457-16.95-14.51-16.95zm23.44,11.14h4.231c0.00051,1.258,0.00051,2.515,0,3.772h0.1015c1.071-1.529,3.109-4.536,7.952-4.536,7.084,0,12.13,6.004,12.13,13.5,0,6.371-3.673,14.69-12.75,14.69-3.568,0-5.913-1.682-7.084-3.568-0.0336-0.0005-0.0679-0.0005-0.102,0v13.35c-1.495-0.0005-2.99-0.0005-4.486,0,0.00051-12.4,0.00051-24.81,0-37.21zm11.33,23.55c4.893,0,8.21-4.239,8.21-10.1,0-3.415-1.379-10.19-8.312-10.19-6.473,0-7.187,6.983-7.187,11.32,0,7.086,4.434,8.971,7.289,8.971zm40.23-5.25c-0.1538,1.274-1.376,5.046-4.74,7.289-1.223,0.8154-2.956,1.835-7.237,1.835-7.492,0-11.93-5.658-11.93-13.35,0-8.257,3.976-14.83,12.79-14.83,7.696,0,11.47,6.116,11.47,15.54h-19.47c0,5.556,2.599,8.767,7.747,8.767,4.23,0,6.727-3.262,6.88-5.25,1.495-0.00037,2.99-0.00037,4.486,0zm-4.754-7.084c-0.2544-4.129-1.987-7.952-7.44-7.952-4.129,0-7.391,3.823-7.391,7.952,4.944-0.0005,9.888-0.0005,14.83,0zm29.9,15.44c-1.495-0.0005-2.99-0.0005-4.485,0v-16.41c0-4.638-1.325-6.983-5.709-6.983-2.549,0-7.034,1.631-7.034,8.869v14.53c-1.495-0.0005-2.99-0.0005-4.486,0v-26.66h4.231v3.772h0.1012c0.9688-1.427,3.468-4.536,8.054-4.536,4.129,0,9.328,1.682,9.328,9.276v18.15" fill="#a3a1a1"/>
   <path d="m196.3,579.4c-11.39,0-16.99-6.938-19.18-14.19,2.466,11.77,15.79,23.29,57.84,28.42,39.72,4.854,65.61-7.316,74.34-12.98,0,0,5.899-2.596,2.359,1.416,0,0-25.02,23.13-74.1,23.36-49.09,0.2364-88.03-24.54-87.79-49.56-0.2358-25.02,38.7-49.8,87.79-49.56,49.09,0.2362,74.1,23.36,74.1,23.36,3.54,4.012-2.359,1.416-2.359,1.416-8.732-5.664-34.51-16.82-74.34-12.98-39.18,3.776-51.96,17.09-56.21,26.05-1.635,3.451-2.374,6.705-2.559,9.984,1.058-8.556,6.376-18.64,20.11-18.64,15.56,0,20.32,12.95,20.32,21.94,0,8.998-4.761,21.94-20.32,21.94zm158.2-8.65h20.73v7.547h-29.43v-41.68h8.708v34.14zm-31.98-14.92h17.42v22.47h-5.805c-0.2912-1.742-0.5812-3.483-0.8712-5.225-2.206,2.554-5.4,6.328-13,6.328-10.04,0-19.16-7.199-19.16-21.83,0-11.38,6.329-22.12,20.38-22.06,12.77,0,17.82,8.301,18.29,14.05h-8.709c0-1.625-2.961-6.85-9.114-6.85-6.212,0-11.96,4.296-11.96,14.98,0,11.38,6.212,14.34,12.13,14.34,1.916,0,8.301-0.7549,10.1-9.173-3.231-0.0005-6.464-0.0005-9.695,0v-7.025zm-126.2-15.4c-9.057,0-14.51,7.141-14.51,16.95,0,9.812,5.457,16.95,14.51,16.95,9.057,0,14.51-7.14,14.51-16.95,0-9.811-5.457-16.95-14.51-16.95zm23.44,11.14h4.23c0.0005,1.257,0.0005,2.515,0,3.771h0.1016c1.071-1.529,3.109-4.535,7.951-4.535,7.085,0,12.13,6.004,12.13,13.5,0,6.371-3.673,14.69-12.75,14.69-3.568,0-5.912-1.682-7.084-3.568-0.0342-0.00037-0.0679-0.00037-0.1026,0,0.0005,4.451,0.0005,8.902,0,13.35-1.495-0.0005-2.99-0.0005-4.485,0v-37.21zm11.33,23.55c4.893,0,8.21-4.24,8.21-10.1,0-3.415-1.379-10.18-8.311-10.18-6.473,0-7.187,6.982-7.187,11.31,0,7.085,4.434,8.971,7.288,8.971zm40.23-5.25c-0.1525,1.274-1.376,5.046-4.739,7.289-1.223,0.8154-2.956,1.835-7.237,1.835-7.492,0-11.93-5.658-11.93-13.35,0-8.257,3.976-14.83,12.79-14.83,7.696,0,11.47,6.115,11.47,15.54-6.489-0.00037-12.98-0.00037-19.47,0,0,5.556,2.6,8.767,7.748,8.767,4.23,0,6.727-3.262,6.88-5.25h4.485zm-4.753-7.084c-0.2544-4.128-1.987-7.951-7.441-7.951-4.128,0-7.391,3.823-7.391,7.951h14.83zm29.9,15.44h-4.485v-16.41c0-4.639-1.325-6.982-5.709-6.982-2.549,0-7.034,1.631-7.034,8.868v14.53h-4.485v-26.66h4.23v3.771h0.1012c0.9688-1.427,3.468-4.535,8.054-4.535,4.129,0,9.328,1.681,9.328,9.275v18.14" fill="#9c9a9b"/>
   <path d="m196.2,579.3c-11.39,0-16.99-6.938-19.18-14.19,2.466,11.77,15.79,23.29,57.83,28.42,39.72,4.854,65.61-7.316,74.34-12.98,0,0,5.9-2.596,2.36,1.416,0,0-25.02,23.13-74.1,23.36-49.09,0.2364-88.03-24.54-87.79-49.56-0.2358-25.02,38.7-49.8,87.79-49.56,49.09,0.235,74.1,23.36,74.1,23.36,3.54,4.012-2.36,1.416-2.36,1.416-8.731-5.665-34.51-16.82-74.34-12.98-39.18,3.776-51.96,17.09-56.21,26.05-1.634,3.451-2.373,6.706-2.559,9.984,1.059-8.556,6.376-18.65,20.11-18.65,15.56,0,20.32,12.95,20.32,21.94,0,8.998-4.761,21.95-20.32,21.95zm158.2-8.65c6.909-0.0005,13.82-0.0005,20.73,0v7.547c-9.811-0.0005-19.62-0.0005-29.43,0v-41.68h8.708v34.14zm-32-14.8c5.805-0.0005,11.61-0.0005,17.42,0v22.47c-1.935-0.0005-3.87-0.0005-5.805,0-0.29-1.742-0.5812-3.484-0.8712-5.225-2.206,2.554-5.399,6.328-13,6.328-10.04,0-19.16-7.199-19.16-21.83,0-11.38,6.328-22.12,20.38-22.06,12.77,0,17.82,8.301,18.29,14.05h-8.709c0-1.625-2.961-6.85-9.115-6.85-6.211,0-11.96,4.296-11.96,14.98,0,11.38,6.211,14.34,12.13,14.34,1.918,0,8.304-0.7549,10.1-9.173h-9.695v-7.024zm-126.2-15.4c-9.057,0-14.51,7.141-14.51,16.95,0,9.812,5.457,16.95,14.51,16.95,9.057,0,14.51-7.141,14.51-16.95,0-9.811-5.457-16.95-14.51-16.95zm23.44,11.14h4.23v3.772c0.0342-0.0005,0.0684-0.0005,0.1021,0,1.07-1.529,3.109-4.536,7.951-4.536,7.085,0,12.13,6.005,12.13,13.5,0,6.371-3.673,14.69-12.75,14.69-3.568,0-5.912-1.682-7.085-3.568-0.0338-0.0005-0.0674-0.0005-0.1021,0,0.0005,4.451,0.0005,8.902,0,13.35h-4.485c0.0005-12.4,0.0005-24.81,0-37.21zm11.33,23.55c4.893,0,8.21-4.24,8.21-10.1,0-3.415-1.379-10.18-8.312-10.18-6.473,0-7.186,6.982-7.186,11.31,0,7.086,4.434,8.971,7.288,8.971zm40.23-5.25c-0.1538,1.274-1.377,5.046-4.74,7.288-1.223,0.815-2.956,1.835-7.237,1.835-7.492,0-11.93-5.658-11.93-13.35,0-8.257,3.976-14.83,12.79-14.83,7.696,0,11.47,6.116,11.47,15.55h-19.47c0,5.556,2.6,8.767,7.748,8.767,4.23,0,6.727-3.262,6.88-5.25,1.495-0.0005,2.991-0.0005,4.486,0zm-4.754-7.085c-0.2549-4.128-1.987-7.951-7.44-7.951-4.129,0-7.391,3.822-7.391,7.951h14.83zm29.9,15.44c-1.495-0.0005-2.99-0.0005-4.485,0v-16.41c0-4.638-1.325-6.982-5.709-6.982-2.549,0-7.034,1.63-7.034,8.868v14.53c-1.495-0.0005-2.99-0.0005-4.485,0v-26.66h4.23v3.772c0.0337-0.0005,0.0687-0.0005,0.1025,0,0.9688-1.427,3.466-4.536,8.052-4.536,4.129,0,9.328,1.682,9.328,9.276v18.15" fill="#989696"/>
   <path d="m196.1,579.2c-11.39,0-16.99-6.938-19.18-14.19,2.466,11.77,15.79,23.29,57.84,28.42,39.72,4.854,65.61-7.316,74.34-12.98,0,0,5.9-2.596,2.36,1.416,0,0-25.02,23.13-74.1,23.36-49.09,0.2364-88.03-24.54-87.79-49.56-0.2363-25.01,38.7-49.79,87.79-49.56,49.09,0.2375,74.1,23.36,74.1,23.36,3.54,4.012-2.36,1.416-2.36,1.416-8.731-5.664-34.51-16.82-74.34-12.98-39.18,3.776-51.96,17.09-56.21,26.06-1.635,3.451-2.374,6.705-2.559,9.984,1.059-8.556,6.377-18.65,20.11-18.65,15.56,0,20.32,12.95,20.32,21.95,0,8.999-4.761,21.95-20.32,21.95zm158.1-8.6c6.909-0.0005,13.82-0.0005,20.73,0v7.547c-9.811-0.0005-19.62-0.0005-29.44,0v-41.69h8.709v34.14zm-31.98-14.92h17.42v22.47c-1.935-0.0005-3.87-0.0005-5.805,0-0.29-1.742-0.5812-3.484-0.8712-5.225-2.206,2.554-5.399,6.328-13,6.328-10.04,0-19.16-7.199-19.16-21.83,0-11.38,6.328-22.12,20.38-22.06,12.77,0,17.82,8.302,18.29,14.05h-8.709c0-1.626-2.961-6.851-9.115-6.851-6.211,0-11.96,4.296-11.96,14.98,0,11.38,6.211,14.34,12.13,14.34,1.916,0,8.302-0.7549,10.1-9.173-3.231-0.0005-6.464-0.0005-9.695,0v-7.025zm-126.2-15.33c-9.057,0-14.51,7.14-14.51,16.95,0,9.812,5.458,16.95,14.51,16.95,9.057,0,14.51-7.141,14.51-16.95,0-9.812-5.457-16.95-14.51-16.95zm23.44,11.14h4.231c0.00051,1.256,0.00051,2.514,0,3.771h0.1016c1.071-1.529,3.109-4.536,7.952-4.536,7.084,0,12.13,6.005,12.13,13.5,0,6.371-3.673,14.69-12.75,14.69-3.568,0-5.913-1.682-7.084-3.567-0.0337-0.0005-0.0679-0.0005-0.1021,0v13.35c-1.495-0.00051-2.99-0.00051-4.486,0,0.0005-12.4,0.0005-24.81,0-37.21zm11.33,23.55c4.893,0,8.21-4.24,8.21-10.1,0-3.415-1.379-10.18-8.312-10.18-6.473,0-7.187,6.982-7.187,11.32,0,7.084,4.435,8.97,7.289,8.97zm40.23-5.25c-0.1538,1.274-1.377,5.046-4.74,7.289-1.223,0.8155-2.956,1.834-7.237,1.834-7.492,0-11.93-5.657-11.93-13.35,0-8.257,3.976-14.83,12.79-14.83,7.696,0,11.47,6.116,11.47,15.55-6.489-0.0005-12.98-0.0005-19.47,0,0,5.556,2.6,8.767,7.747,8.767,4.23,0,6.728-3.262,6.88-5.25h4.486zm-4.754-7.084c-0.2549-4.128-1.987-7.951-7.441-7.951-4.128,0-7.39,3.822-7.39,7.951,4.944-0.0005,9.888-0.0005,14.83,0zm29.9,15.44c-1.495-0.0005-2.99-0.0005-4.485,0v-16.41c0-4.639-1.325-6.982-5.709-6.982-2.549,0-7.034,1.63-7.034,8.868v14.53c-1.495-0.0005-2.99-0.0005-4.485,0v-26.66h4.23v3.771h0.1025c0.9688-1.427,3.466-4.536,8.052-4.536,4.129,0,9.328,1.682,9.328,9.276v18.15" fill="#918f90"/>
   <path d="m196,579.1c-11.39,0-16.99-6.938-19.18-14.19,2.466,11.77,15.79,23.29,57.84,28.42,39.72,4.854,65.61-7.316,74.34-12.98,0,0,5.899-2.596,2.359,1.416,0,0-25.02,23.13-74.1,23.36-49.09,0.2362-88.03-24.54-87.79-49.56-0.2358-25.02,38.7-49.8,87.79-49.56,49.09,0.2362,74.1,23.36,74.1,23.36,3.54,4.012-2.359,1.416-2.359,1.416-8.732-5.664-34.51-16.82-74.34-12.98-39.18,3.776-51.96,17.09-56.21,26.06-1.635,3.45-2.374,6.705-2.558,9.983,1.058-8.556,6.376-18.65,20.11-18.65,15.56,0,20.32,12.95,20.32,21.94,0,8.998-4.761,21.95-20.32,21.95zm158.2-8.65c6.909-0.00037,13.82-0.00037,20.73,0v7.547c-9.811-0.0005-19.62-0.0005-29.43,0v-41.68h8.708v34.14zm-31.98-14.92h17.42v22.47c-1.935-0.0005-3.87-0.0005-5.805,0-0.2912-1.742-0.5812-3.484-0.8712-5.225-2.206,2.555-5.4,6.328-13,6.328-10.04,0-19.16-7.199-19.16-21.83,0-11.38,6.328-22.12,20.38-22.06,12.77,0,17.82,8.301,18.29,14.05h-8.709c0-1.625-2.961-6.85-9.114-6.85-6.214,0-11.96,4.296-11.96,14.98,0,11.38,6.211,14.34,12.13,14.34,1.916,0,8.301-0.7549,10.1-9.173h-9.695v-7.024zm-126.2-15.3c-9.057,0-14.51,7.141-14.51,16.95,0,9.812,5.457,16.95,14.51,16.95,9.057,0,14.51-7.141,14.51-16.95,0-9.811-5.458-16.95-14.51-16.95zm23.44,11.14h4.23c0.00037,1.258,0.00037,2.515,0,3.772h0.1015c1.071-1.529,3.109-4.536,7.951-4.536,7.085,0,12.13,6.004,12.13,13.5,0,6.371-3.673,14.69-12.75,14.69-3.568,0-5.913-1.682-7.085-3.568-0.0341-0.0005-0.0684-0.0005-0.1025,0,0.00049,4.451,0.00049,8.902,0,13.35h-4.485v-37.21zm11.33,23.55c4.893,0,8.209-4.239,8.209-10.1,0-3.415-1.38-10.18-8.312-10.18-6.473,0-7.186,6.982-7.186,11.31,0,7.085,4.435,8.971,7.289,8.971zm40.23-5.25c-0.1525,1.274-1.376,5.046-4.739,7.289-1.223,0.8149-2.956,1.835-7.237,1.835-7.492,0-11.93-5.658-11.93-13.35,0-8.257,3.976-14.83,12.79-14.83,7.696,0,11.47,6.116,11.47,15.54h-19.47c0,5.556,2.599,8.766,7.748,8.766,4.23,0,6.727-3.262,6.88-5.25,1.495-0.0005,2.991-0.0005,4.485,0zm-4.753-7.084c-0.2544-4.129-1.987-7.951-7.441-7.951-4.128,0-7.391,3.822-7.391,7.951,4.944-0.00038,9.889-0.00038,14.83,0zm29.9,15.44c-1.495-0.0005-2.99-0.0005-4.485,0v-16.41c0-4.638-1.325-6.982-5.709-6.982-2.549,0-7.034,1.63-7.034,8.868v14.53c-1.495-0.0005-2.99-0.0005-4.485,0v-26.66h4.23v3.772h0.1025c0.9688-1.427,3.466-4.536,8.052-4.536,4.129,0,9.328,1.682,9.328,9.275v18.15" fill="#8b8889"/>
   <path d="m195.9,579c-11.39,0-16.99-6.938-19.18-14.19,2.467,11.77,15.79,23.29,57.84,28.42,39.72,4.854,65.61-7.316,74.34-12.98,0,0,5.9-2.596,2.36,1.416,0,0-25.02,23.13-74.1,23.36-49.09,0.2364-88.03-24.54-87.79-49.56-0.2358-25.02,38.7-49.8,87.79-49.56,49.09,0.2362,74.1,23.36,74.1,23.36,3.54,4.012-2.36,1.416-2.36,1.416-8.731-5.664-34.51-16.82-74.34-12.98-39.18,3.776-51.96,17.09-56.21,26.06-1.634,3.45-2.374,6.705-2.559,9.983,1.059-8.556,6.376-18.65,20.11-18.65,15.56,0,20.32,12.95,20.32,21.94,0,8.999-4.761,21.94-20.32,21.94zm158.2-8.65c6.909-0.0005,13.82-0.0005,20.73,0v7.547h-29.43v-41.68h8.708v34.14zm-31.98-14.92h17.42v22.47h-5.805c-0.29-1.742-0.5812-3.483-0.8712-5.225-2.206,2.554-5.4,6.328-13,6.328-10.04,0-19.16-7.199-19.16-21.83,0-11.38,6.328-22.12,20.38-22.06,12.77,0,17.82,8.301,18.29,14.05h-8.709c0-1.626-2.961-6.851-9.115-6.851-6.211,0-11.96,4.296-11.96,14.98,0,11.38,6.212,14.34,12.13,14.34,1.918,0,8.304-0.7549,10.1-9.173h-9.695v-7.025zm-126.2-15.33c-9.057,0-14.51,7.141-14.51,16.95,0,9.811,5.457,16.95,14.51,16.95,9.057,0,14.51-7.141,14.51-16.95,0-9.811-5.457-16.95-14.51-16.95zm23.44,11.14h4.23c0.0005,1.257,0.0005,2.515,0,3.772h0.102c1.071-1.529,3.109-4.535,7.951-4.535,7.085,0,12.13,6.004,12.13,13.5,0,6.372-3.673,14.69-12.75,14.69-3.568,0-5.913-1.682-7.085-3.567-0.0336-0.0005-0.0674-0.0005-0.102,0,0.0005,4.451,0.0005,8.902,0,13.35-1.495-0.0005-2.99-0.0005-4.485,0v-37.21zm11.33,23.55c4.892,0,8.21-4.24,8.21-10.1,0-3.415-1.38-10.18-8.312-10.18-6.473,0-7.186,6.982-7.186,11.31,0,7.085,4.434,8.971,7.289,8.971zm40.23-5.25c-0.1525,1.274-1.375,5.046-4.74,7.289-1.223,0.8155-2.956,1.834-7.237,1.834-7.493,0-11.93-5.657-11.93-13.35,0-8.257,3.976-14.83,12.79-14.83,7.696,0,11.47,6.116,11.47,15.54-6.489-0.0005-12.98-0.0005-19.47,0,0,5.556,2.6,8.767,7.748,8.767,4.23,0,6.727-3.262,6.88-5.25,1.495-0.0005,2.991-0.0005,4.485,0zm-4.753-7.084c-0.2549-4.128-1.987-7.951-7.44-7.951-4.129,0-7.391,3.822-7.391,7.951,4.944-0.00049,9.888-0.00049,14.83,0zm30,15.4h-4.485v-16.41c0-4.639-1.325-6.982-5.709-6.982-2.549,0-7.034,1.63-7.034,8.868v14.53h-4.485v-26.66h4.23v3.772h0.1025c0.9688-1.426,3.466-4.535,8.052-4.535,4.129,0,9.328,1.681,9.328,9.276v18.14" fill="#848182"/>
   <path d="m195.8,578.9c-11.39,0-16.99-6.938-19.18-14.19,2.466,11.77,15.79,23.29,57.84,28.42,39.72,4.855,65.61-7.316,74.34-12.98,0,0,5.9-2.596,2.36,1.416,0,0-25.02,23.13-74.1,23.36-49.09,0.2364-88.03-24.54-87.79-49.56-0.2363-25.02,38.7-49.8,87.79-49.56,49.09,0.2362,74.1,23.36,74.1,23.36,3.54,4.012-2.36,1.416-2.36,1.416-8.731-5.665-34.51-16.82-74.34-12.98-39.18,3.775-51.96,17.08-56.21,26.05-1.635,3.451-2.374,6.706-2.559,9.984,1.059-8.556,6.376-18.65,20.11-18.65,15.56,0,20.32,12.95,20.32,21.95,0,8.999-4.761,21.95-20.32,21.95zm158.2-8.65c6.909-0.0005,13.82-0.0005,20.73,0v7.547c-9.811-0.0005-19.62-0.0005-29.44,0v-41.68h8.709v34.14zm-31.98-14.92h17.42v22.47c-1.935-0.0005-3.87-0.0005-5.805,0-0.29-1.742-0.5812-3.484-0.8712-5.225-2.206,2.554-5.399,6.328-13,6.328-10.04,0-19.16-7.199-19.16-21.83,0-11.38,6.328-22.12,20.38-22.06,12.77,0,17.82,8.302,18.29,14.05h-8.709c0-1.625-2.961-6.85-9.115-6.85-6.211,0-11.96,4.296-11.96,14.98,0,11.38,6.211,14.34,12.13,14.34,1.916,0,8.302-0.755,10.1-9.173-3.231-0.0005-6.464-0.0005-9.695,0v-7.024zm-126.2-15.33c-9.057,0-14.51,7.141-14.51,16.95,0,9.812,5.458,16.95,14.51,16.95,9.057,0,14.51-7.141,14.51-16.95,0-9.811-5.457-16.95-14.51-16.95zm23.44,11.14h4.231v3.772h0.1015c1.071-1.529,3.109-4.537,7.952-4.537,7.084,0,12.13,6.005,12.13,13.5,0,6.371-3.673,14.69-12.75,14.69-3.567,0-5.912-1.682-7.084-3.568-0.0336-0.0005-0.0674-0.0005-0.102,0,0.0005,4.451,0.0005,8.902,0,13.35-1.495-0.0005-2.99-0.0005-4.485,0,0.0005-12.4,0.0005-24.81,0-37.21zm11.33,23.55c4.893,0,8.21-4.24,8.21-10.1,0-3.414-1.379-10.18-8.312-10.18-6.473,0-7.187,6.982-7.187,11.31,0,7.085,4.435,8.971,7.289,8.971zm40.23-5.25c-0.1538,1.274-1.377,5.046-4.74,7.288-1.223,0.8155-2.956,1.836-7.237,1.836-7.492,0-11.93-5.658-11.93-13.35,0-8.257,3.976-14.83,12.79-14.83,7.696,0,11.47,6.117,11.47,15.55-6.489-0.00051-12.98-0.00051-19.47,0,0,5.556,2.6,8.767,7.747,8.767,4.23,0,6.728-3.262,6.88-5.25h4.486zm-4.754-7.084c-0.2549-4.128-1.987-7.951-7.441-7.951-4.128,0-7.39,3.823-7.39,7.951h14.83zm29.9,15.44c-1.495-0.00051-2.99-0.00051-4.485,0v-16.41c0-4.638-1.325-6.982-5.709-6.982-2.549,0-7.034,1.631-7.034,8.869v14.53c-1.495-0.00051-2.99-0.00051-4.485,0v-26.66h4.23v3.772h0.1025c0.9688-1.427,3.465-4.537,8.052-4.537,4.129,0,9.328,1.682,9.328,9.276v18.15" fill="#7d7b7b"/>
   <path d="m195.7,578.8c-11.39,0-16.99-6.938-19.18-14.19,2.466,11.77,15.79,23.29,57.83,28.42,39.72,4.854,65.61-7.316,74.34-12.98,0,0,5.9-2.596,2.36,1.416,0,0-25.02,23.13-74.1,23.36-49.09,0.2362-88.03-24.54-87.79-49.56-0.2363-25.01,38.7-49.8,87.79-49.56,49.09,0.235,74.1,23.36,74.1,23.36,3.54,4.011-2.36,1.415-2.36,1.415-8.732-5.664-34.51-16.82-74.34-12.98-39.18,3.776-51.96,17.09-56.21,26.06-1.635,3.451-2.374,6.705-2.559,9.984,1.059-8.556,6.377-18.65,20.11-18.65,15.56,0,20.32,12.95,20.32,21.95,0,8.999-4.76,21.94-20.32,21.94zm158.2-8.65c6.909-0.00038,13.82-0.00038,20.73,0v7.547h-29.44v-41.68h8.709v34.14zm-31.98-14.92h17.42v22.47h-5.805c-0.2912-1.742-0.5812-3.483-0.8712-5.224-2.206,2.554-5.4,6.328-13,6.328-10.04,0-19.16-7.199-19.16-21.83,0-11.38,6.328-22.12,20.38-22.06,12.77,0,17.82,8.302,18.29,14.05h-8.709c0-1.625-2.961-6.851-9.115-6.851-6.212,0-11.96,4.298-11.96,14.98,0,11.38,6.211,14.34,12.13,14.34,1.915,0,8.301-0.7549,10.1-9.173-3.231-0.00038-6.464-0.00038-9.695,0v-7.025zm-126.2-15.4c-9.057,0-14.51,7.14-14.51,16.95,0,9.812,5.457,16.95,14.51,16.95,9.057,0,14.51-7.141,14.51-16.95,0-9.812-5.457-16.95-14.51-16.95zm23.44,11.14h4.231c0.0005,1.256,0.0005,2.514,0,3.771h0.1015c1.07-1.529,3.109-4.536,7.951-4.536,7.085,0,12.13,6.004,12.13,13.5,0,6.372-3.673,14.69-12.75,14.69-3.568,0-5.913-1.682-7.084-3.567-0.0341-0.0005-0.0683-0.0005-0.1025,0,0.0005,4.451,0.0005,8.902,0,13.35-1.495-0.0005-2.99-0.0005-4.485,0,0.0005-12.4,0.0005-24.81,0-37.21zm11.33,23.55c4.893,0,8.209-4.24,8.209-10.1,0-3.415-1.379-10.18-8.312-10.18-6.473,0-7.186,6.983-7.186,11.31,0,7.085,4.434,8.971,7.289,8.971zm40.23-5.25c-0.1525,1.274-1.375,5.046-4.74,7.289-1.223,0.8154-2.956,1.835-7.237,1.835-7.492,0-11.93-5.657-11.93-13.35,0-8.257,3.976-14.83,12.79-14.83,7.696,0,11.47,6.116,11.47,15.55-6.489-0.0005-12.98-0.0005-19.47,0,0,5.556,2.599,8.766,7.748,8.766,4.23,0,6.727-3.262,6.88-5.25,1.495-0.0005,2.991-0.0005,4.485,0zm-4.753-7.084c-0.2544-4.128-1.987-7.951-7.441-7.951-4.128,0-7.391,3.822-7.391,7.951,4.944-0.0005,9.888-0.0005,14.83,0zm29.9,15.44h-4.485v-16.41c0-4.639-1.326-6.983-5.709-6.983-2.549,0-7.034,1.63-7.034,8.868v14.53h-4.485v-26.66h4.23v3.771h0.1025c0.9675-1.427,3.466-4.536,8.052-4.536,4.129,0,9.328,1.681,9.328,9.276v18.14" fill="#777475"/>
   <path d="m195.5,578.7c-11.39,0-16.99-6.938-19.18-14.19,2.467,11.77,15.79,23.29,57.84,28.42,39.72,4.854,65.61-7.316,74.34-12.98,0,0,5.9-2.596,2.361,1.415,0,0-25.02,23.13-74.1,23.36-49.09,0.2364-88.03-24.54-87.79-49.56-0.2358-25.02,38.7-49.79,87.79-49.56,49.09,0.2362,74.1,23.36,74.1,23.36,3.539,4.012-2.361,1.416-2.361,1.416-8.731-5.664-34.51-16.82-74.34-12.98-39.18,3.776-51.96,17.09-56.21,26.06-1.635,3.45-2.374,6.705-2.559,9.983,1.059-8.556,6.376-18.65,20.11-18.65,15.56,0,20.32,12.95,20.32,21.94,0,8.998-4.761,21.95-20.32,21.95zm158.2-8.65c6.909-0.00051,13.82-0.00051,20.73,0v7.547c-9.811-0.0005-19.62-0.0005-29.43,0v-41.68h8.708v34.14zm-32-14.9h17.42v22.47c-1.935-0.0005-3.87-0.0005-5.805,0-0.2912-1.742-0.5812-3.484-0.8712-5.225-2.206,2.554-5.399,6.328-13,6.328-10.04,0-19.16-7.199-19.16-21.83,0-11.38,6.328-22.12,20.38-22.06,12.77,0,17.82,8.302,18.29,14.05h-8.709c0-1.626-2.961-6.851-9.115-6.851-6.212,0-11.96,4.296-11.96,14.98,0,11.38,6.212,14.34,12.13,14.34,1.918,0,8.302-0.7549,10.1-9.173-3.231-0.0005-6.464-0.0005-9.695,0v-7.024zm-126.2-15.3c-9.057,0-14.51,7.141-14.51,16.95,0,9.812,5.457,16.95,14.51,16.95,9.057,0,14.51-7.141,14.51-16.95,0-9.811-5.457-16.95-14.51-16.95zm23.44,11.14h4.23c0.0005,1.258,0.0005,2.515,0,3.772h0.1021c1.071-1.529,3.109-4.536,7.951-4.536,7.084,0,12.13,6.004,12.13,13.5,0,6.371-3.673,14.69-12.75,14.69-3.568,0-5.913-1.682-7.085-3.568-0.0337-0.0005-0.0679-0.0005-0.1021,0,0.0005,4.451,0.0005,8.902,0,13.35h-4.485v-37.21zm11.33,23.55c4.893,0,8.21-4.24,8.21-10.1,0-3.415-1.379-10.18-8.312-10.18-6.473,0-7.186,6.982-7.186,11.31,0,7.085,4.434,8.971,7.288,8.971zm40.23-5.25c-0.1525,1.274-1.375,5.046-4.74,7.289-1.223,0.8149-2.956,1.835-7.237,1.835-7.493,0-11.93-5.658-11.93-13.35,0-8.257,3.976-14.83,12.79-14.83,7.696,0,11.47,6.116,11.47,15.54-6.489-0.0005-12.98-0.0005-19.47,0,0,5.556,2.6,8.767,7.748,8.767,4.23,0,6.727-3.262,6.88-5.25h4.485zm-4.753-7.085c-0.2545-4.128-1.987-7.951-7.441-7.951-4.128,0-7.391,3.823-7.391,7.951h14.83zm29.9,15.44c-1.495-0.0005-2.99-0.0005-4.485,0v-16.41c0-4.638-1.325-6.982-5.709-6.982-2.549,0-7.034,1.631-7.034,8.869v14.53c-1.495-0.0005-2.99-0.0005-4.485,0v-26.66h4.23v3.772h0.1025c0.9688-1.427,3.466-4.536,8.052-4.536,4.129,0,9.328,1.681,9.328,9.276v18.15" fill="#706d6e"/>
   <path d="m195.4,578.6c-11.39,0-16.99-6.938-19.18-14.19,2.467,11.77,15.79,23.29,57.84,28.42,39.72,4.854,65.61-7.316,74.34-12.98,0,0,5.9-2.596,2.361,1.416,0,0-25.02,23.13-74.1,23.36-49.09,0.2364-88.03-24.54-87.79-49.56-0.2358-25.02,38.7-49.8,87.79-49.56,49.09,0.2362,74.1,23.36,74.1,23.36,3.539,4.012-2.361,1.416-2.361,1.416-8.731-5.664-34.51-16.82-74.34-12.98-39.18,3.776-51.96,17.09-56.21,26.05-1.635,3.451-2.374,6.706-2.559,9.984,1.059-8.557,6.376-18.65,20.11-18.65,15.56,0,20.32,12.95,20.32,21.94,0,8.999-4.761,21.94-20.32,21.94zm158.2-8.65h20.73v7.547c-9.811-0.0005-19.62-0.0005-29.44,0v-41.68h8.709v34.14zm-31.98-14.92h17.42v22.47c-1.935-0.0005-3.87-0.0005-5.805,0-0.29-1.742-0.5812-3.483-0.8712-5.225-2.206,2.555-5.399,6.328-13,6.328-10.04,0-19.16-7.199-19.16-21.83,0-11.38,6.328-22.12,20.38-22.06,12.77,0,17.82,8.301,18.29,14.05h-8.709c0-1.626-2.961-6.851-9.115-6.851-6.211,0-11.96,4.296-11.96,14.98,0,11.38,6.211,14.34,12.13,14.34,1.918,0,8.304-0.7544,10.1-9.173h-9.695v-7.025zm-126.2-15.4c-9.057,0-14.51,7.141-14.51,16.95,0,9.811,5.458,16.95,14.51,16.95,9.057,0,14.51-7.141,14.51-16.95,0-9.811-5.457-16.95-14.51-16.95zm23.44,11.14h4.231v3.772h0.1016c1.071-1.529,3.109-4.537,7.952-4.537,7.084,0,12.13,6.005,12.13,13.5,0,6.371-3.673,14.69-12.75,14.69-3.567,0-5.912-1.682-7.084-3.568h-0.1021c0.0005,4.451,0.0005,8.902,0,13.35h-4.485c0.00051-12.4,0.00051-24.81,0-37.21zm11.33,23.55c4.893,0,8.21-4.239,8.21-10.1,0-3.415-1.38-10.18-8.312-10.18-6.473,0-7.187,6.982-7.187,11.31,0,7.085,4.434,8.97,7.289,8.97zm40.23-5.25c-0.1538,1.274-1.377,5.046-4.74,7.289-1.224,0.815-2.956,1.834-7.237,1.834-7.493,0-11.93-5.658-11.93-13.35,0-8.257,3.976-14.83,12.79-14.83,7.696,0,11.47,6.117,11.47,15.55-6.489-0.00049-12.98-0.00049-19.47,0,0,5.555,2.6,8.766,7.747,8.766,4.23,0,6.728-3.261,6.88-5.25,1.495-0.0005,2.99-0.0005,4.486,0zm-4.754-7.084c-0.2549-4.129-1.988-7.951-7.442-7.951-4.128,0-7.39,3.822-7.39,7.951,4.944-0.0005,9.888-0.0005,14.83,0zm29.9,15.44c-1.495-0.0005-2.99-0.0005-4.485,0v-16.41c0-4.639-1.325-6.982-5.709-6.982-2.549,0-7.034,1.63-7.034,8.868v14.53c-1.495-0.0005-2.99-0.0005-4.485,0v-26.66h4.23v3.772h0.1025c0.9675-1.427,3.465-4.537,8.052-4.537,4.129,0,9.328,1.682,9.328,9.277v18.14" fill="#6c696a"/>
   <path d="m195.3,578.5c-11.39,0-16.99-6.938-19.18-14.19,2.466,11.77,15.79,23.29,57.84,28.42,39.72,4.854,65.61-7.316,74.34-12.98,0,0,5.901-2.596,2.36,1.416,0,0-25.02,23.13-74.1,23.36-49.09,0.2363-88.03-24.54-87.79-49.56-0.2358-25.02,38.7-49.8,87.79-49.56,49.09,0.2362,74.1,23.36,74.1,23.36,3.541,4.012-2.36,1.416-2.36,1.416-8.731-5.664-34.51-16.82-74.34-12.98-39.18,3.775-51.96,17.09-56.21,26.05-1.635,3.451-2.374,6.706-2.558,9.984,1.058-8.556,6.376-18.65,20.11-18.65,15.56,0,20.32,12.95,20.32,21.95,0,8.999-4.761,21.94-20.32,21.94zm158.2-8.65,20.73,0,0,7.547-29.44,0,0-41.68,8.709,0,0,34.14zm-31.98-14.92,17.42,0,0,22.47-5.805,0-0.8712-5.224c-2.206,2.554-5.399,6.328-13,6.328-10.04,0-19.16-7.199-19.16-21.83,0-11.38,6.328-22.12,20.38-22.06,12.77,0,17.82,8.302,18.29,14.05h-8.709c0-1.625-2.961-6.85-9.115-6.85-6.211,0-11.96,4.296-11.96,14.98,0,11.38,6.211,14.34,12.13,14.34,1.915,0,8.301-0.7554,10.1-9.173h-9.695v-7.025zm-126.2-15.3c-9.057,0-14.51,7.141-14.51,16.95,0,9.811,5.458,16.95,14.51,16.95,9.057,0,14.51-7.141,14.51-16.95,0-9.811-5.458-16.95-14.51-16.95zm23.44,11.14,4.231,0,0,3.772,0.1015,0c1.071-1.529,3.109-4.537,7.951-4.537,7.085,0,12.13,6.005,12.13,13.5,0,6.371-3.673,14.69-12.75,14.69-3.568,0-5.913-1.682-7.084-3.568h-0.1025v13.35h-4.485v-37.21zm11.33,23.55c4.893,0,8.209-4.24,8.209-10.1,0-3.415-1.38-10.18-8.312-10.18-6.473,0-7.187,6.983-7.187,11.32,0,7.085,4.435,8.971,7.289,8.971zm40.23-5.25c-0.1538,1.274-1.377,5.046-4.741,7.289-1.223,0.8154-2.956,1.835-7.237,1.835-7.492,0-11.93-5.658-11.93-13.35,0-8.257,3.976-14.83,12.79-14.83,7.697,0,11.47,6.117,11.47,15.55h-19.47c0,5.555,2.599,8.766,7.748,8.766,4.23,0,6.728-3.262,6.88-5.25h4.486zm-4.754-7.085c-0.2544-4.129-1.987-7.951-7.441-7.951-4.128,0-7.391,3.823-7.391,7.951h14.83zm29.9,15.44-4.485,0,0-16.41c0-4.638-1.326-6.983-5.709-6.983-2.549,0-7.034,1.631-7.034,8.869v14.53h-4.485v-26.66h4.23v3.772h0.1025c0.9675-1.427,3.466-4.537,8.052-4.537,4.129,0,9.328,1.682,9.328,9.277v18.14" fill="#656263"/>
   <path d="m195.3,578.5c-11.39,0-16.99-6.938-19.18-14.19,2.466,11.77,15.79,23.29,57.84,28.42,39.72,4.854,65.61-7.316,74.34-12.98,0,0,5.901-2.596,2.36,1.416,0,0-25.02,23.13-74.1,23.36-49.09,0.2363-88.03-24.54-87.79-49.56-0.2358-25.02,38.7-49.8,87.79-49.56,49.09,0.2362,74.1,23.36,74.1,23.36,3.541,4.012-2.36,1.416-2.36,1.416-8.731-5.664-34.51-16.82-74.34-12.98-39.18,3.775-51.96,17.09-56.21,26.05-1.635,3.451-2.374,6.706-2.558,9.984,1.058-8.556,6.376-18.65,20.11-18.65,15.56,0,20.32,12.95,20.32,21.95,0,8.999-4.761,21.94-20.32,21.94zm158.2-8.65,20.73,0,0,7.547-29.44,0,0-41.68,8.709,0,0,34.14zm-31.98-14.92,17.42,0,0,22.47-5.805,0-0.8712-5.224c-2.206,2.554-5.399,6.328-13,6.328-10.04,0-19.16-7.199-19.16-21.83,0-11.38,6.328-22.12,20.38-22.06,12.77,0,17.82,8.302,18.29,14.05h-8.709c0-1.625-2.961-6.85-9.115-6.85-6.211,0-11.96,4.296-11.96,14.98,0,11.38,6.211,14.34,12.13,14.34,1.915,0,8.301-0.7554,10.1-9.173h-9.695v-7.025zm-126.2-15.3c-9.057,0-14.51,7.141-14.51,16.95,0,9.811,5.458,16.95,14.51,16.95,9.057,0,14.51-7.141,14.51-16.95,0-9.811-5.458-16.95-14.51-16.95zm23.44,11.14,4.231,0,0,3.772,0.1015,0c1.071-1.529,3.109-4.537,7.951-4.537,7.085,0,12.13,6.005,12.13,13.5,0,6.371-3.673,14.69-12.75,14.69-3.568,0-5.913-1.682-7.084-3.568h-0.1025v13.35h-4.485v-37.21zm11.33,23.55c4.893,0,8.209-4.24,8.209-10.1,0-3.415-1.38-10.18-8.312-10.18-6.473,0-7.187,6.983-7.187,11.32,0,7.085,4.435,8.971,7.289,8.971zm40.23-5.25c-0.1538,1.274-1.377,5.046-4.741,7.289-1.223,0.8154-2.956,1.835-7.237,1.835-7.492,0-11.93-5.658-11.93-13.35,0-8.257,3.976-14.83,12.79-14.83,7.697,0,11.47,6.117,11.47,15.55h-19.47c0,5.555,2.599,8.766,7.748,8.766,4.23,0,6.728-3.262,6.88-5.25h4.486zm-4.754-7.085c-0.2544-4.129-1.987-7.951-7.441-7.951-4.128,0-7.391,3.823-7.391,7.951h14.83zm29.9,15.44-4.485,0,0-16.41c0-4.638-1.326-6.983-5.709-6.983-2.549,0-7.034,1.631-7.034,8.869v14.53h-4.485v-26.66h4.23v3.772h0.1025c0.9675-1.427,3.466-4.537,8.052-4.537,4.129,0,9.328,1.682,9.328,9.277v18.14" fill="#4386b5"/>
  </g>
 </g>
</svg>
